<svg width="263" height="311" viewBox="0 0 263 311" fill="none" xmlns="http://www.w3.org/2000/svg">
<g clip-path="url(#clip0_30_31)">
<path d="M292.764 -44H-22.9864C-26.8599 -44 -30 -40.8599 -30 -36.9864V354.994C-30 358.867 -26.8599 362.007 -22.9864 362.007H292.764C296.638 362.007 299.778 358.867 299.778 354.994V-36.9864C299.778 -40.8599 296.638 -44 292.764 -44Z" fill="#EEEEEE"/>
<path d="M118.686 62.7231L55.6447 81.2089C51.1945 82.5138 48.6448 87.1792 49.9497 91.6294L70.6809 162.329C71.9859 166.779 76.6513 169.328 81.1015 168.023L144.143 149.538C148.593 148.233 151.143 143.567 149.838 139.117L129.107 68.4181C127.802 63.9679 123.136 61.4182 118.686 62.7231Z" fill="#9F9F9F"/>
<path d="M208.121 49.938L113.454 22.2187C111.018 21.5054 108.465 22.902 107.752 25.3381L77.7475 127.809C77.0342 130.245 78.4308 132.798 80.8669 133.511L175.534 161.231C177.97 161.944 180.523 160.547 181.236 158.111L211.24 55.6406C211.954 53.2044 210.557 50.6513 208.121 49.938Z" fill="url(#paint0_linear_30_31)" stroke="white" stroke-width="5.398" stroke-linecap="round" stroke-linejoin="round"/>
<path d="M198.895 58.237L117.521 34.4097L95.6876 108.973L177.063 132.801L198.895 58.237Z" fill="#CCCCCC" stroke="white" stroke-width="2.25674" stroke-linecap="round" stroke-linejoin="round"/>
<path d="M198.895 58.237L117.521 34.4097L107.332 69.2061L188.707 93.0335L198.895 58.237Z" fill="white" stroke="white" stroke-width="2.25674" stroke-linecap="round" stroke-linejoin="round"/>
<path fill-rule="evenodd" clip-rule="evenodd" d="M112.303 70.6617L121.273 63.6566L133.494 59.1104L135.225 62.9587L139.357 57.2094L140.861 57.1132L144.435 53.0848L165.528 91.6435" fill="#CCCCCC"/>
<path d="M112.303 70.6617L121.273 63.6566L133.494 59.1104L135.225 62.9587L139.357 57.2094L140.861 57.1132L144.435 53.0848L165.528 91.6435" stroke="white" stroke-width="2.25674" stroke-linecap="round" stroke-linejoin="round"/>
<path fill-rule="evenodd" clip-rule="evenodd" d="M144.435 53.0848C144.314 56.0132 144.108 58.9381 143.819 61.8547C143.6 64.0682 143.332 66.2769 143.016 68.4787L139.707 66.2218L133.494 59.1104L132.124 67.0614L130.653 71.0902L130.845 76.6113L143.542 78.2142L158.496 78.7906L154.333 63.6409L152.001 65.6447L148.58 60.6626L144.435 53.0848Z" fill="#B3B3B3" stroke="white" stroke-width="2.25674" stroke-linecap="round" stroke-linejoin="round"/>
<path fill-rule="evenodd" clip-rule="evenodd" d="M130.731 81.4548L147.912 73.0956L151.448 72.3895L157.511 66.215L162.863 63.8779L183.955 102.437" fill="#CCCCCC"/>
<path d="M130.731 81.4548L147.912 73.0956L151.448 72.3895L157.511 66.215L162.863 63.8779L183.955 102.437" stroke="white" stroke-width="2.25674" stroke-linecap="round" stroke-linejoin="round"/>
<path fill-rule="evenodd" clip-rule="evenodd" d="M162.863 63.8778L164.893 79.0285L163.432 84.0178L161.971 89.007L164.748 93.3222C166.142 92.5699 167.664 92.0559 169.229 91.8089C172.025 91.3675 174.875 91.7785 177.705 91.8404C178.855 91.8656 180.031 91.828 181.105 91.4196C181.379 91.3156 181.644 91.1881 181.896 91.0392L176.925 89.5836L172.178 80.8986L169.604 71.3441L167.477 72.3112L162.863 63.8778Z" fill="#B3B3B3" stroke="white" stroke-width="2.25674" stroke-linecap="round" stroke-linejoin="round"/>
<path fill-rule="evenodd" clip-rule="evenodd" d="M120.542 116.251C120.939 114.64 119.935 112.906 124.867 112C130.919 110.89 147.469 112.162 152.989 109.443C157.073 107.432 143.149 99.7852 146.739 96.9857C148.366 95.7162 157.49 96.5411 161.819 95.9549C165.923 95.3992 165.289 93.4082 168.477 92.5118C171.557 91.6459 180.762 92.5516 181.895 91.0392C179.659 92.2774 169.5 91.0803 165.527 91.6436C161.334 92.238 161.003 93.9043 155.906 94.1306C150.415 94.3745 140.138 93.2112 137.407 94.2039C131.686 96.2833 143.105 103.536 137.181 104.932C129.158 106.822 110.335 104.86 102.114 105.458C96.433 105.872 96.5455 107.021 95.6873 108.974" fill="white"/>
<path d="M120.542 116.251C120.939 114.64 119.935 112.906 124.867 112C130.919 110.89 147.469 112.162 152.989 109.443C157.073 107.432 143.149 99.7852 146.739 96.9857C148.366 95.7162 157.49 96.5411 161.819 95.9549C165.923 95.3992 165.289 93.4082 168.477 92.5118C171.557 91.6459 180.762 92.5516 181.895 91.0392C179.659 92.2774 169.5 91.0803 165.527 91.6436C161.334 92.238 161.003 93.9043 155.906 94.1306C150.415 94.3745 140.138 93.2112 137.407 94.2039C131.686 96.2833 143.105 103.536 137.181 104.932C129.158 106.822 110.335 104.86 102.114 105.458C96.433 105.872 96.5455 107.021 95.6873 108.974" stroke="white" stroke-width="2.25674" stroke-linecap="round" stroke-linejoin="round"/>
<path d="M73.8612 221.062V244.335H69.6112L59.4862 229.687H59.3157V244.335H54.3953V221.062H58.7135L68.7589 235.698H68.9635V221.062H73.8612ZM99.3129 232.698C99.3129 235.236 98.8318 237.395 97.8697 239.176C96.9152 240.956 95.6121 242.316 93.9606 243.255C92.3167 244.187 90.4682 244.653 88.4152 244.653C86.347 244.653 84.4909 244.183 82.847 243.244C81.2031 242.304 79.9038 240.945 78.9493 239.164C77.9947 237.384 77.5174 235.229 77.5174 232.698C77.5174 230.16 77.9947 228.001 78.9493 226.221C79.9038 224.441 81.2031 223.085 82.847 222.153C84.4909 221.214 86.347 220.744 88.4152 220.744C90.4682 220.744 92.3167 221.214 93.9606 222.153C95.6121 223.085 96.9152 224.441 97.8697 226.221C98.8318 228.001 99.3129 230.16 99.3129 232.698ZM94.3243 232.698C94.3243 231.054 94.0781 229.668 93.5856 228.539C93.1008 227.41 92.4152 226.554 91.5288 225.971C90.6424 225.388 89.6046 225.096 88.4152 225.096C87.2258 225.096 86.1879 225.388 85.3015 225.971C84.4152 226.554 83.7258 227.41 83.2334 228.539C82.7485 229.668 82.5061 231.054 82.5061 232.698C82.5061 234.342 82.7485 235.729 83.2334 236.857C83.7258 237.986 84.4152 238.842 85.3015 239.426C86.1879 240.009 87.2258 240.301 88.4152 240.301C89.6046 240.301 90.6424 240.009 91.5288 239.426C92.4152 238.842 93.1008 237.986 93.5856 236.857C94.0781 235.729 94.3243 234.342 94.3243 232.698ZM115.284 221.062V244.335H110.364V221.062H115.284ZM119.333 221.062H125.401L131.81 236.698H132.083L138.492 221.062H144.56V244.335H139.787V229.187H139.594L133.571 244.221H130.321L124.299 229.13H124.106V244.335H119.333V221.062ZM152.625 244.335H147.353L155.387 221.062H161.728L169.75 244.335H164.478L158.648 226.38H158.466L152.625 244.335ZM152.296 235.187H164.75V239.028H152.296V235.187ZM186.89 228.585C186.731 228.032 186.507 227.543 186.219 227.119C185.931 226.687 185.579 226.323 185.162 226.028C184.753 225.725 184.284 225.494 183.753 225.335C183.231 225.176 182.651 225.096 182.015 225.096C180.825 225.096 179.78 225.392 178.878 225.982C177.984 226.573 177.287 227.433 176.787 228.562C176.287 229.683 176.037 231.054 176.037 232.676C176.037 234.297 176.284 235.676 176.776 236.812C177.268 237.948 177.965 238.816 178.867 239.414C179.768 240.005 180.833 240.301 182.06 240.301C183.174 240.301 184.124 240.104 184.912 239.71C185.708 239.308 186.314 238.744 186.731 238.017C187.155 237.289 187.367 236.429 187.367 235.437L188.367 235.585H182.367V231.88H192.106V234.812C192.106 236.857 191.674 238.615 190.81 240.085C189.946 241.547 188.757 242.676 187.242 243.471C185.727 244.259 183.992 244.653 182.037 244.653C179.856 244.653 177.939 244.172 176.287 243.21C174.636 242.24 173.348 240.865 172.424 239.085C171.507 237.297 171.049 235.176 171.049 232.721C171.049 230.835 171.321 229.153 171.867 227.676C172.42 226.191 173.193 224.933 174.185 223.903C175.177 222.873 176.333 222.089 177.651 221.551C178.969 221.013 180.397 220.744 181.935 220.744C183.253 220.744 184.481 220.937 185.617 221.323C186.753 221.702 187.761 222.24 188.64 222.937C189.526 223.634 190.249 224.464 190.81 225.426C191.371 226.38 191.731 227.433 191.89 228.585H186.89ZM195.802 244.335V221.062H211.483V225.119H200.722V230.664H210.677V234.721H200.722V240.278H211.529V244.335H195.802Z" fill="#767676"/>
<path d="M50.7191 284.335H45.4464L53.4805 261.062H59.8214L67.8442 284.335H62.5714L56.7419 266.38H56.5601L50.7191 284.335ZM50.3896 275.187H62.8442V279.028H50.3896V275.187ZM71.9436 261.062L77.5686 278.744H77.7845L83.4209 261.062H88.8754L80.8527 284.335H74.5118L66.4777 261.062H71.9436ZM92.5941 284.335H87.3214L95.3555 261.062H101.696L109.719 284.335H104.446L98.6169 266.38H98.4351L92.5941 284.335ZM92.2646 275.187H104.719V279.028H92.2646V275.187ZM117.441 261.062V284.335H112.52V261.062H117.441ZM121.489 284.335V261.062H126.409V280.278H136.387V284.335H121.489ZM144.25 284.335H138.978L147.012 261.062H153.353L161.375 284.335H156.103L150.273 266.38H150.091L144.25 284.335ZM143.921 275.187H156.375V279.028H143.921V275.187ZM164.177 284.335V261.062H173.495C175.207 261.062 176.635 261.316 177.779 261.823C178.923 262.331 179.783 263.035 180.358 263.937C180.934 264.831 181.222 265.861 181.222 267.028C181.222 267.937 181.04 268.736 180.677 269.426C180.313 270.107 179.813 270.668 179.177 271.107C178.548 271.539 177.828 271.846 177.017 272.028V272.255C177.904 272.293 178.733 272.543 179.506 273.005C180.286 273.467 180.919 274.115 181.404 274.948C181.889 275.774 182.131 276.759 182.131 277.903C182.131 279.138 181.824 280.24 181.211 281.21C180.605 282.172 179.707 282.933 178.517 283.494C177.328 284.054 175.862 284.335 174.12 284.335H164.177ZM169.097 280.312H173.108C174.48 280.312 175.48 280.051 176.108 279.528C176.737 278.998 177.052 278.293 177.052 277.414C177.052 276.77 176.896 276.202 176.586 275.71C176.275 275.217 175.832 274.831 175.256 274.551C174.688 274.27 174.01 274.13 173.222 274.13H169.097V280.312ZM169.097 270.801H172.745C173.419 270.801 174.017 270.683 174.54 270.448C175.07 270.206 175.487 269.865 175.79 269.426C176.101 268.986 176.256 268.46 176.256 267.846C176.256 267.005 175.957 266.327 175.358 265.812C174.767 265.297 173.927 265.039 172.836 265.039H169.097V270.801ZM185.333 284.335V261.062H190.253V280.278H200.231V284.335H185.333ZM203.489 284.335V261.062H219.171V265.119H208.409V270.664H218.364V274.721H208.409V280.278H219.216V284.335H203.489Z" fill="#767676"/>
</g>
<defs>
<linearGradient id="paint0_linear_30_31" x1="172.454" y1="45.0203" x2="142.198" y2="142.628" gradientUnits="userSpaceOnUse">
<stop stop-color="#C2C2C2"/>
<stop offset="1" stop-color="#9F9F9F"/>
</linearGradient>
<clipPath id="clip0_30_31">
<rect width="263" height="311" fill="white"/>
</clipPath>
</defs>
</svg>
